<?xml version="1.0" standalone="no"?>
<!DOCTYPE svg PUBLIC "-//W3C//DTD SVG 20010904//EN"
 "http://www.w3.org/TR/2001/REC-SVG-20010904/DTD/svg10.dtd">
<svg version="1.0" xmlns="http://www.w3.org/2000/svg"
 width="423.000000pt" height="341.000000pt" viewBox="0 0 423.000000 341.000000"
 preserveAspectRatio="xMidYMid meet">

<g transform="translate(0.000000,341.000000) scale(0.100000,-0.100000)"
fill="#000000" stroke="none">
<path d="M2140 2539 c0 -5 -13 -9 -30 -9 -16 0 -29 -3 -29 -7 4 -22 -3 -33
-20 -33 -11 0 -26 -6 -33 -13 -7 -8 -21 -13 -31 -11 -10 1 -17 -3 -16 -9 3
-20 -12 -47 -27 -47 -8 0 -14 -5 -14 -11 0 -5 -4 -7 -10 -4 -6 4 -10 -5 -10
-19 0 -14 -5 -26 -12 -26 -6 0 -1 -11 12 -25 13 -14 29 -25 35 -25 7 0 11 -14
10 -34 0 -19 3 -32 7 -30 4 3 8 -1 8 -10 0 -8 5 -16 12 -18 6 -2 -3 -14 -20
-27 -18 -12 -32 -30 -32 -38 0 -9 -3 -14 -6 -10 -4 3 -13 0 -21 -8 -20 -20
-34 -19 -27 3 5 14 4 15 -5 2 -6 -8 -11 -24 -12 -35 -1 -16 -2 -17 -6 -3 -2 9
-10 15 -18 12 -8 -3 -11 -12 -9 -19 3 -7 0 -16 -7 -21 -8 -5 -10 -3 -4 7 5 8
-4 3 -18 -10 -29 -26 -34 -50 -15 -69 17 -17 55 -15 62 3 6 17 36 21 36 4 0
-6 9 -8 23 -4 15 4 18 4 8 -3 -11 -8 -10 -12 5 -21 11 -7 13 -10 4 -8 -8 2
-31 -1 -50 -8 -23 -8 -43 -9 -60 -3 -19 7 -22 6 -14 -2 14 -14 6 -52 -8 -43
-7 4 -8 -6 -4 -28 4 -19 9 -49 13 -66 3 -18 9 -30 14 -27 5 3 9 -4 9 -15 0
-11 5 -23 11 -27 8 -4 7 -9 -2 -15 -11 -7 -9 -9 6 -10 11 0 14 -3 7 -6 -10 -4
-10 -8 -1 -19 9 -11 7 -18 -10 -33 -12 -10 -20 -25 -19 -32 2 -10 -6 -13 -24
-11 -16 1 -38 -3 -50 -9 -13 -7 -35 -13 -50 -14 -15 -2 -47 -12 -72 -24 -34
-17 -48 -30 -57 -58 -13 -41 2 -82 30 -78 9 1 10 0 3 -2 -8 -3 -11 -11 -6 -21
4 -10 12 -31 18 -48 6 -18 17 -38 24 -47 10 -12 10 -16 -3 -21 -29 -11 -4 -28
39 -25 59 3 66 1 66 -16 0 -14 43 -22 88 -16 7 1 15 -5 18 -13 3 -9 9 -14 14
-11 4 2 16 -4 28 -15 11 -11 36 -22 54 -24 18 -2 40 -7 49 -11 10 -3 20 -2 24
4 8 13 25 14 25 2 0 -5 -10 -12 -22 -16 -21 -7 -21 -8 7 -12 17 -2 36 -6 43
-8 22 -8 27 -5 27 18 0 16 6 22 23 23 46 2 79 -54 81 -140 0 -37 -3 -47 -13
-43 -7 3 -18 1 -24 -5 -6 -6 -35 -12 -64 -12 -45 -1 -54 -5 -65 -26 -7 -14
-13 -21 -13 -16 0 5 -6 3 -14 -3 -10 -8 -16 -9 -21 -1 -8 13 -67 3 -77 -13
-14 -21 -8 -29 15 -20 36 13 239 5 264 -10 5 -3 25 8 44 24 24 21 42 29 61 26
19 -2 28 2 31 14 6 24 52 13 76 -17 23 -29 35 -31 26 -4 -8 26 14 27 41 2 11
-10 25 -17 33 -14 7 2 16 0 20 -4 3 -5 26 -22 51 -38 25 -16 39 -31 32 -34 -6
-2 -12 -10 -12 -17 0 -7 -7 -16 -15 -19 -13 -5 -14 -10 -4 -28 10 -21 10 -21
-4 -8 -9 8 -17 22 -19 30 -4 22 -55 70 -74 70 -12 0 -11 -6 8 -29 13 -15 26
-27 30 -24 4 2 12 -6 18 -17 8 -16 8 -20 -4 -20 -8 0 -17 -8 -20 -18 -5 -13
-15 -18 -36 -17 -17 1 -30 -2 -30 -7 0 -4 -6 -7 -12 -6 -7 2 -12 -3 -10 -11 2
-11 0 -12 -11 -3 -11 9 -16 7 -25 -13 -9 -20 -16 -24 -40 -19 -21 4 -31 2 -35
-10 -4 -9 -2 -16 3 -16 5 0 7 -7 4 -15 -4 -8 -12 -15 -20 -15 -8 0 -14 -7 -14
-15 0 -9 -12 -27 -26 -42 -32 -32 -25 -39 28 -24 48 15 85 39 148 97 46 42 84
66 133 84 15 5 30 17 32 25 16 49 12 47 51 30 76 -31 150 -12 222 58 79 78
142 220 142 323 0 23 6 57 14 75 20 48 31 145 17 153 -19 12 -12 43 21 107 27
51 32 71 32 127 -1 77 -30 144 -116 268 -52 76 -95 123 -82 91 3 -9 9 -17 13
-17 9 0 46 -63 43 -73 -1 -5 2 -6 8 -2 10 6 17 -5 22 -40 2 -11 11 -27 20 -36
15 -14 14 -16 -13 -26 -16 -6 -27 -7 -23 -2 3 5 -4 21 -15 35 -11 14 -18 31
-15 37 4 12 -65 51 -75 42 -2 -3 2 -5 10 -5 11 0 11 -2 -1 -10 -25 -16 -43
-12 -36 8 4 9 -9 0 -29 -22 -28 -30 -44 -39 -75 -41 -33 -2 -40 1 -40 16 0 16
-4 17 -31 7 -26 -9 -32 -8 -45 11 -18 26 -31 26 -56 4 -11 -10 -19 -13 -18 -8
2 6 2 19 1 30 -1 18 -2 18 -18 3 -14 -14 -14 -20 -3 -33 7 -8 10 -18 6 -22 -3
-3 -6 0 -6 7 0 9 -5 8 -19 -4 -11 -10 -24 -16 -29 -13 -4 4 -21 8 -36 11 -22
4 -25 2 -17 -8 6 -7 8 -16 4 -19 -12 -13 -23 -7 -23 12 0 11 -4 21 -8 23 -5 2
-28 43 -52 93 -37 77 -41 93 -32 117 6 17 6 28 1 28 -21 0 -32 48 -19 80 10
23 10 33 1 44 -7 8 -11 20 -10 28 1 7 -4 27 -11 43 -7 17 -14 33 -15 38 -2 4
-4 10 -5 15 -3 9 -3 10 4 56 4 23 2 44 -5 52 -6 8 -8 14 -5 14 4 0 -2 10 -14
22 -11 12 -20 27 -20 34 0 13 -24 26 -52 29 -10 1 -18 -2 -18 -6z m-75 -128
c3 -5 0 -13 -6 -17 -7 -4 -9 -3 -5 4 3 5 0 13 -6 15 -9 4 -10 6 -1 6 6 1 14
-3 18 -8z m-80 -30 c-3 -12 -11 -19 -16 -16 -5 3 -6 0 -4 -7 4 -9 -2 -14 -15
-15 -27 -2 -25 11 7 41 30 28 38 27 28 -3z m30 -8 c-4 -10 -8 -27 -8 -38 0
-16 -1 -17 -4 -2 -3 9 -9 14 -15 11 -5 -3 -2 8 7 26 17 33 34 35 20 3z m194
-75 c5 -15 4 -26 -3 -30 -17 -12 -26 -9 -26 7 0 8 5 15 11 15 6 0 9 7 5 15 -3
8 -3 15 0 15 2 0 8 -10 13 -22z m-249 -372 c0 -11 -19 -15 -25 -6 -3 5 1 10 9
10 9 0 16 -2 16 -4z m874 -55 c3 -5 -3 -11 -15 -14 -16 -4 -18 -3 -8 9 13 16
16 17 23 5z m-239 -69 c-3 -3 -11 0 -18 7 -9 10 -8 11 6 5 10 -3 15 -9 12 -12z
m325 -192 c11 -7 7 -10 -18 -10 -20 0 -31 4 -27 10 8 13 26 13 45 0z m-70
-170 c0 -5 -10 -10 -22 -10 -19 0 -20 2 -8 10 19 13 30 13 30 0z m-632 -225
c4 -5 0 -5 -8 -1 -13 7 -13 6 0 -6 16 -14 16 -78 0 -78 -9 0 -60 80 -60 93 0
9 58 2 68 -8z m363 -163 c-9 -3 -8 -9 5 -23 9 -10 14 -19 9 -19 -4 0 -2 -6 4
-14 7 -8 8 -17 3 -20 -5 -3 -24 10 -42 30 -30 34 -31 36 -11 41 11 3 18 9 15
14 -3 5 3 6 12 2 12 -4 14 -8 5 -11z m-96 -42 c3 -5 26 -18 50 -29 26 -11 45
-27 45 -35 0 -20 -34 -21 -50 -1 -7 8 -22 15 -35 15 -37 0 -85 21 -85 37 0 9
6 13 15 10 8 -4 17 -2 20 3 8 13 32 13 40 0z m-340 -50 c-3 -5 -14 -10 -23
-10 -15 0 -15 2 -2 10 20 13 33 13 25 0z"/>
<path d="M2520 2465 c-6 -16 -26 -49 -44 -74 -18 -25 -36 -55 -40 -67 -7 -24
2 -56 14 -49 4 3 19 -4 33 -15 23 -18 25 -18 29 -2 3 9 6 47 7 83 1 36 6 83
11 104 11 47 5 59 -10 20z"/>
<path d="M1194 2071 c-4 -9 -7 -19 -6 -22 0 -3 -25 -37 -56 -75 -31 -37 -51
-65 -44 -61 14 10 16 -5 2 -19 -7 -7 -5 -17 4 -30 14 -18 16 -18 44 -1 17 9
37 17 44 17 8 0 20 11 26 25 6 14 15 25 20 25 4 0 8 24 9 53 1 28 3 63 5 77 2
20 -2 25 -19 26 -12 1 -25 -6 -29 -15z"/>
<path d="M1151 2044 c0 -11 3 -14 6 -6 3 7 2 16 -1 19 -3 4 -6 -2 -5 -13z"/>
<path d="M1096 1963 c-6 -14 -5 -15 5 -6 7 7 10 15 7 18 -3 3 -9 -2 -12 -12z"/>
<path d="M1432 1813 c-6 -3 -10 -9 -6 -14 3 -5 -1 -9 -9 -9 -19 0 -47 -33 -47
-56 0 -12 3 -15 8 -7 5 8 11 3 19 -13 10 -21 9 -23 -1 -15 -9 8 -13 7 -13 -4
0 -20 55 -19 81 0 47 36 20 136 -32 118z"/>
<path d="M1935 1140 c-4 -6 3 -10 14 -10 25 0 27 6 6 13 -8 4 -17 2 -20 -3z"/>
<path d="M2110 1086 c0 -2 7 -6 15 -10 8 -3 15 -1 15 4 0 6 -7 10 -15 10 -8 0
-15 -2 -15 -4z"/>
<path d="M1890 1000 c-8 -15 -8 -20 2 -20 22 0 41 17 34 29 -11 17 -24 13 -36
-9z"/>
<path d="M1886 945 c-3 -8 -1 -15 4 -15 6 0 10 7 10 15 0 8 -2 15 -4 15 -2 0
-6 -7 -10 -15z"/>
<path d="M2240 796 c0 -8 4 -17 9 -20 5 -4 7 3 4 14 -6 23 -13 26 -13 6z"/>
<path d="M2170 570 c0 -5 5 -10 11 -10 5 0 7 5 4 10 -3 6 -8 10 -11 10 -2 0
-4 -4 -4 -10z"/>
</g>
</svg>
